<svg id="Ebene_1" data-name="Ebene 1" xmlns="http://www.w3.org/2000/svg" viewBox="0 0 519.04 519.04"><defs><style>.cls-1{fill:#1b1431;}.cls-2{fill:#fff;}</style></defs><title>Zeichenfläche 1</title><rect class="cls-1" width="519.04" height="519.04"/><polygon class="cls-2" points="342.13 369.58 318.71 369.58 318.71 288.52 342.13 288.52 342.13 369.58 342.13 369.58"/><path class="cls-2" d="M130.67,233.44h22q15.38,0,22.15-7.63t6.78-21.56q0-13.69-7.3-21.18t-21.5-7.5q-12.92,0-21.06,7.36t-8.14,19.36H93.13l-.26-.78Q92.09,179.75,109.1,165t43.34-14.79q27.75,0,44.3,14.08t16.55,40q0,12.12-7.42,23.45t-21.12,17.6q16.17,5.73,23.79,17.46a48,48,0,0,1,7.62,26.72q0,26.07-17.92,41t-45.8,14.92q-26.34,0-44.25-14T91.05,292.61l.26-.79H121.8q0,12.58,8.48,20.37T152.83,320Q167.54,320,176,312t8.47-22.5q0-16-7.75-23.6t-24-7.61h-22V233.44Z"/><path class="cls-2" d="M329,149.46A99,99,0,0,0,307,345.09v-30.3a69.88,69.88,0,1,1,46.84-1.07v30.62A99,99,0,0,0,329,149.46"/></svg>